<svg version="1.1" xmlns="http://www.w3.org/2000/svg" viewBox="-2936.480628671874 -1769.600115966797 8037.0246609594715 2893.056188964844"><desc>Created with Snap</desc><defs></defs><g><g transform="matrix(23.8853,0,0,23.8853,-2629.2806,-1462.4001)"><g><path fill="#e0e0e0" d="M9,5.2c-1.7,0-3.2,1.4-3.2,3.2s1.4,3.2,3.2,3.2s3.2-1.4,3.2-3.2S10.8,5.2,9,5.2z M9,9.2   c-0.5,0-0.9-0.4-0.9-0.9c0-0.5,0.4-0.9,0.9-0.9c0.5,0,0.9,0.4,0.9,0.9C9.9,8.9,9.5,9.2,9,9.2z" style=""></path><path fill="#e0e0e0" d="M16.1,5.2c-1.7,0-3.2,1.4-3.2,3.2s1.4,3.2,3.2,3.2s3.2-1.4,3.2-3.2S17.8,5.2,16.1,5.2z M16.1,9.2   c-0.5,0-0.9-0.4-0.9-0.9c0-0.5,0.4-0.9,0.9-0.9c0.5,0,0.9,0.4,0.9,0.9C16.9,8.9,16.5,9.2,16.1,9.2z" style=""></path><path fill="#e0e0e0" d="M23.1,5.2c-1.7,0-3.2,1.4-3.2,3.2s1.4,3.2,3.2,3.2c1.7,0,3.2-1.4,3.2-3.2S24.8,5.2,23.1,5.2z M23.1,9.2   c-0.5,0-0.9-0.4-0.9-0.9c0-0.5,0.4-0.9,0.9-0.9c0.5,0,0.9,0.4,0.9,0.9C24,8.9,23.6,9.2,23.1,9.2z" style=""></path><path fill="#e0e0e0" d="M34.3,20.6H11c-0.6,0-1.2,0.5-1.2,1.2s0.5,1.2,1.2,1.2h23.3c0.6,0,1.2-0.5,1.2-1.2S34.9,20.6,34.3,20.6z" style=""></path><path fill="#e0e0e0" d="M34.3,27H11c-0.6,0-1.2,0.5-1.2,1.2s0.5,1.2,1.2,1.2h23.3c0.6,0,1.2-0.5,1.2-1.2S34.9,27,34.3,27z" style=""></path><path fill="#e0e0e0" d="M34.3,33.4H11c-0.6,0-1.2,0.5-1.2,1.2c0,0.6,0.5,1.2,1.2,1.2h23.3c0.6,0,1.2-0.5,1.2-1.2   C35.5,33.9,34.9,33.4,34.3,33.4z" style=""></path><path fill="#e0e0e0" d="M34.3,39.8H11c-0.6,0-1.2,0.5-1.2,1.2s0.5,1.2,1.2,1.2h23.3c0.6,0,1.2-0.5,1.2-1.2S34.9,39.8,34.3,39.8z" style=""></path><path fill="#e0e0e0" d="M34.3,46.2H11c-0.6,0-1.2,0.5-1.2,1.2s0.5,1.2,1.2,1.2h23.3c0.6,0,1.2-0.5,1.2-1.2S34.9,46.2,34.3,46.2z" style=""></path><path fill="#e0e0e0" d="M41.8,22.9h32.5c0.6,0,1.2-0.5,1.2-1.2s-0.5-1.2-1.2-1.2H41.8c-0.6,0-1.2,0.5-1.2,1.2S41.1,22.9,41.8,22.9z   " style=""></path><path fill="#e0e0e0" d="M41.8,29.3h32.5c0.6,0,1.2-0.5,1.2-1.2S74.9,27,74.3,27H41.8c-0.6,0-1.2,0.5-1.2,1.2S41.1,29.3,41.8,29.3z" style=""></path><path fill="#e0e0e0" d="M74.3,35.7c0.6,0,1.2-0.5,1.2-1.2c0-0.6-0.5-1.2-1.2-1.2H41.8c-0.6,0-1.2,0.5-1.2,1.2   c0,0.6,0.5,1.2,1.2,1.2H74.3z" style=""></path><path fill="#e0e0e0" d="M99.1,38.1c-0.6-0.4-1.3-0.6-2-0.4l-9.8,2.8V2.3C87.3,1,86.2,0,85,0H2.3C1,0,0,1,0,2.3v57   c0,1.3,1,2.3,2.3,2.3h34.3v31.5c0,0.7,0.3,1.4,0.9,1.8c0.4,0.3,0.9,0.5,1.4,0.5c0.2,0,0.4,0,0.6-0.1l28.6-8.1l28.9,8.1   c0.7,0.2,1.4,0.1,2-0.4c0.6-0.4,0.9-1.1,0.9-1.8V39.9C100,39.2,99.7,38.5,99.1,38.1z M4.6,4.6h78v7.7h-78V4.6z M37.5,38.1   c-0.6,0.4-0.9,1.1-0.9,1.8V57h-32V14.7h78v27.3l-14.5,4.2l-13.6-4h19.8c0.6,0,1.2-0.5,1.2-1.2s-0.5-1.2-1.2-1.2H46.7l-7.1-2.1   C38.9,37.5,38.1,37.7,37.5,38.1z M65.8,83.1l-24.6,7V43l24.6,7.2V83.1z M95.4,90.1l-24.9-7V50.3L95.4,43V90.1z" style=""></path><path fill="#e0e0e0" d="M74,55.8c0.1,0,0.1,0,0.2,0l16-2.9c0.6-0.1,1-0.7,0.9-1.3c-0.1-0.6-0.7-1-1.3-0.9l-16,2.9   c-0.6,0.1-1,0.7-0.9,1.3C73,55.4,73.4,55.8,74,55.8z" style=""></path><path fill="#e0e0e0" d="M74,61.5c0,0,0.1,0,0.1,0L90,60c0.6-0.1,1.1-0.6,1-1.3c-0.1-0.6-0.6-1.1-1.3-1l-16,1.5   c-0.6,0.1-1.1,0.6-1,1.3C72.9,61,73.4,61.5,74,61.5z" style=""></path><path fill="#e0e0e0" d="M74,67.1h16c0.6,0,1.2-0.5,1.2-1.2c0-0.6-0.5-1.2-1.2-1.2H74c-0.6,0-1.2,0.5-1.2,1.2   C72.8,66.6,73.3,67.1,74,67.1z" style=""></path><path fill="#e0e0e0" d="M90,71.9l-16-1.5c-0.6,0-1.2,0.4-1.3,1c-0.1,0.6,0.4,1.2,1,1.3l16,1.5c0,0,0.1,0,0.1,0c0.6,0,1.1-0.4,1.1-1   C91.1,72.5,90.7,71.9,90,71.9z" style=""></path><path fill="#e0e0e0" d="M90.1,79l-16-2.9c-0.6-0.1-1.2,0.3-1.3,0.9c-0.1,0.6,0.3,1.2,0.9,1.3l16,2.9c0.1,0,0.1,0,0.2,0   c0.5,0,1-0.4,1.1-0.9C91.2,79.7,90.8,79.1,90.1,79z" style=""></path><path fill="#e0e0e0" d="M45.5,52.9l16,2.9c0.1,0,0.1,0,0.2,0c0.5,0,1-0.4,1.1-0.9c0.1-0.6-0.3-1.2-0.9-1.3l-16-2.9   c-0.6-0.1-1.2,0.3-1.3,0.9C44.5,52.2,44.9,52.8,45.5,52.9z" style=""></path><path fill="#e0e0e0" d="M45.6,60l16,1.5c0,0,0.1,0,0.1,0c0.6,0,1.1-0.4,1.1-1c0.1-0.6-0.4-1.2-1-1.3l-16-1.5c-0.6,0-1.2,0.4-1.3,1   C44.5,59.4,45,59.9,45.6,60z" style=""></path><path fill="#e0e0e0" d="M45.7,67.1h16c0.6,0,1.2-0.5,1.2-1.2c0-0.6-0.5-1.2-1.2-1.2h-16c-0.6,0-1.2,0.5-1.2,1.2   C44.6,66.6,45.1,67.1,45.7,67.1z" style=""></path><path fill="#e0e0e0" d="M61.6,70.4l-16,1.5c-0.6,0.1-1.1,0.6-1,1.3c0.1,0.6,0.6,1,1.1,1c0,0,0.1,0,0.1,0l16-1.5   c0.6-0.1,1.1-0.6,1-1.3C62.8,70.8,62.2,70.4,61.6,70.4z" style=""></path><path fill="#e0e0e0" d="M61.5,76l-16,2.9c-0.6,0.1-1,0.7-0.9,1.3c0.1,0.6,0.6,0.9,1.1,0.9c0.1,0,0.1,0,0.2,0l16-2.9   c0.6-0.1,1-0.7,0.9-1.3C62.7,76.3,62.1,75.9,61.5,76z" style=""></path></g><desc>Created with Snap</desc><defs></defs></g><g><g transform="matrix(1.024,0,0,-1.024,0,0)"><path d="M279 0L63 0L63 810L249 810Q304 810 344 798Q385 786 412 761Q439 736 452 697Q465 659 465 607Q465 557 452 520Q440 484 414 463Q389 442 349 436Q398 425 428 398Q458 372 472 330Q487 289 487 231Q487 179 475 136Q463 93 437 63Q412 33 372 16Q333 0 279 0ZM176 386L176 81L252 81Q328 81 353 116Q379 152 379 231Q379 282 365 316Q352 351 322 368Q293 386 243 386L176 386ZM176 726L176 472L243 472Q291 472 318 485Q345 499 356 529Q367 559 367 607Q367 663 350 688Q333 713 297 719Q261 726 203 726L176 726ZM688 0L581 0L581 578L688 578L688 496Q720 549 752 567Q784 585 816 585Q820 585 823 585Q827 585 833 584L833 466Q821 471 805 474Q790 478 774 478Q749 478 728 466Q708 455 688 422L688 0ZM1013 0L906 0L906 578L1013 578L1013 0ZM1013 664L906 664L906 776L1013 776L1013 664ZM1278 -179Q1226 -179 1184 -168Q1142 -157 1118 -133Q1094 -109 1094 -70Q1094 -42 1106 -21Q1118 0 1137 15Q1156 31 1177 41Q1149 49 1135 66Q1121 84 1121 103Q1121 135 1138 158Q1155 181 1185 208Q1152 233 1135 272Q1118 311 1118 380Q1118 448 1136 493Q1155 539 1191 562Q1228 586 1281 586Q1328 586 1356 570Q1385 554 1400 522Q1405 530 1427 549Q1449 569 1478 582L1494 589L1521 520Q1508 518 1486 510Q1465 503 1446 495Q1428 488 1423 483Q1430 466 1435 434Q1441 402 1441 377Q1441 318 1426 273Q1411 228 1376 202Q1342 177 1281 177Q1268 177 1253 179Q1238 181 1226 184Q1220 175 1213 163Q1207 151 1207 140Q1207 129 1218 122Q1230 116 1255 114L1345 106Q1413 100 1446 65Q1479 30 1479 -35Q1479 -82 1457 -115Q1435 -147 1390 -163Q1346 -179 1278 -179ZM1286 -95Q1343 -95 1370 -82Q1397 -68 1397 -38Q1397 -20 1390 -8Q1384 4 1367 11Q1350 18 1318 21L1227 29Q1216 18 1206 7Q1196 -4 1190 -17Q1184 -29 1184 -43Q1184 -69 1206 -82Q1228 -95 1286 -95ZM1281 252Q1304 252 1317 260Q1331 269 1338 285Q1345 302 1347 326Q1350 350 1350 380Q1350 410 1347 434Q1345 459 1338 476Q1332 494 1318 503Q1305 512 1282 512Q1260 512 1245 503Q1231 494 1224 477Q1217 461 1214 436Q1211 412 1211 380Q1211 353 1213 329Q1216 306 1223 289Q1231 272 1245 262Q1259 252 1281 252ZM1673 0L1566 0L1566 810L1673 810L1673 518Q1702 546 1738 566Q1774 586 1818 586Q1852 586 1870 568Q1889 550 1896 523Q1904 496 1904 468L1904 0L1797 0L1797 437Q1797 468 1788 485Q1779 502 1751 502Q1732 502 1711 491Q1691 480 1673 464L1673 0ZM2162 -8Q2117 -8 2089 9Q2062 26 2049 57Q2037 88 2037 130L2037 507L1976 507L1976 578L2037 578L2037 747L2144 747L2144 578L2237 578L2237 507L2144 507L2144 137Q2144 103 2155 88Q2166 74 2197 74Q2205 74 2215 75Q2226 76 2236 77L2236 -2Q2216 -5 2199 -7Q2182 -8 2162 -8ZM2770 0L2554 0L2554 810L2740 810Q2795 810 2835 798Q2876 786 2903 761Q2930 736 2943 697Q2956 659 2956 607Q2956 557 2943 520Q2931 484 2905 463Q2880 442 2840 436Q2889 425 2919 398Q2949 372 2963 330Q2978 289 2978 231Q2978 179 2966 136Q2954 93 2928 63Q2903 33 2863 16Q2824 0 2770 0ZM2667 386L2667 81L2743 81Q2819 81 2844 116Q2870 152 2870 231Q2870 282 2856 316Q2843 351 2813 368Q2784 386 2734 386L2667 386ZM2667 726L2667 472L2734 472Q2782 472 2809 485Q2836 499 2847 529Q2858 559 2858 607Q2858 663 2841 688Q2824 713 2788 719Q2752 726 2694 726L2667 726ZM3229 -8Q3161 -8 3124 18Q3087 45 3072 96Q3058 148 3058 223L3058 355Q3058 432 3073 483Q3088 534 3125 560Q3163 586 3229 586Q3302 586 3336 556Q3371 526 3382 469Q3393 413 3393 334L3393 287L3165 287L3165 171Q3165 136 3171 114Q3178 92 3192 81Q3207 71 3230 71Q3254 71 3266 82Q3279 94 3283 115Q3288 137 3288 166L3288 201L3392 201L3392 179Q3392 92 3355 42Q3318 -8 3229 -8ZM3165 376L3165 345L3288 345L3288 397Q3288 433 3284 457Q3280 482 3267 494Q3255 507 3228 507Q3202 507 3188 495Q3175 483 3170 454Q3165 426 3165 376ZM3597 0L3490 0L3490 578L3597 578L3597 521Q3626 548 3661 567Q3696 586 3738 586Q3773 586 3791 568Q3810 550 3817 523Q3825 496 3825 468L3825 0L3718 0L3718 437Q3718 468 3709 485Q3700 502 3672 502Q3654 502 3634 491Q3615 481 3597 466L3597 0ZM4087 -8Q4016 -8 3979 20Q3943 49 3930 101Q3918 153 3918 222L3918 355Q3918 428 3931 479Q3944 531 3980 558Q4017 586 4087 586Q4150 586 4184 565Q4219 545 4232 504Q4245 464 4245 404L4245 370L4148 370L4148 405Q4148 443 4143 465Q4138 487 4125 497Q4112 507 4088 507Q4062 507 4048 495Q4034 483 4029 454Q4025 426 4025 377L4025 195Q4025 121 4039 96Q4053 71 4089 71Q4116 71 4128 83Q4141 96 4144 119Q4148 142 4148 171L4148 218L4245 218L4245 178Q4245 120 4231 78Q4218 36 4183 14Q4149 -8 4087 -8ZM4450 0L4343 0L4343 810L4450 810L4450 518Q4479 546 4515 566Q4551 586 4595 586Q4629 586 4647 568Q4666 550 4673 523Q4681 496 4681 468L4681 0L4574 0L4574 437Q4574 468 4565 485Q4556 502 4528 502Q4509 502 4488 491Q4468 480 4450 464L4450 0Z" fill="#195190" style=""></path></g></g></g></svg>