<svg version="1.1" xmlns="http://www.w3.org/2000/svg" viewBox="-210.4320098876953 -3685.3758789062495 3580.92783203125 5398.527832031249"><desc>Created with Snap</desc><defs></defs><g><g transform="matrix(29.8025,0,0,29.8025,75.5137,-3765.757)"><g><path d="M49.569,22.967c-9.975-5.691-20.677-9.125-31.045-9.962v58.351c10.367,0.814,21.05,4.154,31.045,9.699V22.967z" fill="#ffd348" style=""></path><path d="M49.229,84.073c0.814,0.278,1.671,0.29,2.485,0.012c11.657-5.043,23.865-7.313,35.798-6.79V19.524   c-1.074-0.048-2.155-0.059-3.24-0.055v53.594l-0.852,0.056c-10.672,0.697-21.732,4.177-32.021,10.048   c-0.594,0.203-1.237,0.203-1.83,0c-10.29-5.871-21.349-9.351-32.021-10.048l-0.854-0.056V19.469   c-1.084-0.004-2.166,0.006-3.239,0.055v57.771C25.387,76.771,37.569,79.03,49.229,84.073z" fill="#ffd348" style=""></path><path d="M92.579,26.009c-1.07-0.149-2.157-0.228-3.237-0.335v53.55l-0.968-0.056c-12.195-0.699-25.06,1.777-36.975,7.065   l-0.916,0.381l-0.915-0.381c-11.917-5.288-24.781-7.765-36.976-7.065l-0.967,0.056v-53.55c-1.081,0.108-2.168,0.187-3.238,0.335   v58.707c0.594,0.307,1.044,0.748,1.044,0.748c12.951-1.75,26.393-1.536,39.18,2.651c0.588-0.058,1.212-0.095,1.873-0.095   c0.661,0,1.285,0.037,1.872,0.095c12.785-4.188,26.229-4.401,39.179-2.651c0,0,0.474-0.462,1.044-0.748V26.009z" fill="#ffd348" style=""></path><path d="M65.283,16.667v20.625l-3.98-4.738l-4.195,4.738V19.994c-1.924,0.91-3.829,1.901-5.708,2.974v58.087   c9.993-5.545,20.679-8.885,31.045-9.699V13.005C76.766,13.464,70.987,14.706,65.283,16.667z" fill="#ffd348" style=""></path></g><desc>Created with Snap</desc><defs></defs></g><g><g transform="matrix(0.512,0,0,-0.512,0,0)"><path d="M305 0L189 0L189 1488L299 1486Q348 1486 399 1489Q450 1493 509 1496Q568 1500 641 1500Q812 1500 922 1456Q1032 1412 1085 1332Q1138 1253 1138 1146Q1138 1076 1114 1004Q1091 932 1041 877Q991 823 912 802Q1003 797 1075 746Q1148 696 1191 617Q1234 539 1234 447Q1234 312 1180 208Q1126 104 995 45Q864 -14 632 -14Q545 -14 452 -9Q359 -3 305 0ZM421 1321L421 851Q448 847 481 845Q514 844 549 844Q584 845 616 845Q649 846 676 846Q778 846 844 912Q911 978 911 1114Q911 1227 831 1281Q751 1335 602 1335Q584 1335 545 1333Q507 1332 471 1329Q435 1326 421 1321ZM421 676L421 177Q438 167 480 162Q522 157 570 155Q619 154 654 154Q815 154 906 213Q997 272 997 423Q997 558 915 619Q834 681 662 681Q634 681 600 681Q567 682 533 681Q500 681 471 680Q442 679 421 676ZM1692 818L1678 970Q1693 1001 1741 1038Q1789 1076 1854 1103Q1920 1130 1988 1130Q2026 1130 2053 1127Q2081 1124 2094 1116L2094 900Q2079 908 2048 917Q2018 926 1950 926Q1888 926 1838 908Q1789 891 1752 866Q1715 841 1692 818ZM1704 0L1474 0L1474 1112L1670 1112L1686 970L1704 886L1704 0ZM2538 0L2308 0L2308 1112L2538 1112L2538 0ZM2410 1309Q2352 1309 2308 1346Q2265 1383 2265 1447Q2265 1491 2289 1526Q2314 1562 2352 1583Q2390 1605 2431 1605Q2502 1605 2538 1565Q2574 1525 2574 1467Q2574 1398 2524 1353Q2475 1309 2410 1309ZM3288 -504Q3068 -504 2940 -423Q2812 -342 2812 -176Q2812 -114 2842 -66Q2872 -17 2916 16Q2960 49 3002 66L3150 44Q3129 25 3103 4Q3077 -17 3057 -52Q3038 -86 3038 -144Q3038 -210 3064 -257Q3090 -303 3146 -328Q3203 -352 3296 -352Q3382 -352 3455 -334Q3528 -315 3572 -278Q3616 -240 3616 -184Q3616 -125 3594 -84Q3573 -43 3514 -22Q3456 0 3344 0L3234 0Q3177 0 3133 2Q3089 5 3054 14Q3042 17 3031 24Q3020 32 3008 36Q2933 65 2907 116Q2882 167 2882 218Q2882 257 2902 297Q2923 338 2960 375Q2998 413 3048 442L3191 406Q3155 392 3125 357Q3096 323 3096 284Q3096 223 3125 201Q3155 180 3224 180L3424 180Q3553 180 3634 153Q3715 126 3759 80Q3803 35 3819 -21Q3836 -76 3836 -134Q3836 -221 3793 -290Q3750 -358 3674 -406Q3598 -454 3499 -479Q3400 -504 3288 -504ZM3281 380Q3156 380 3056 426Q2956 473 2898 555Q2840 638 2840 746Q2840 876 2898 960Q2956 1044 3057 1085Q3158 1126 3285 1128Q3409 1131 3512 1092Q3615 1053 3676 970Q3738 888 3738 758Q3738 636 3679 551Q3620 467 3517 423Q3414 380 3281 380ZM3287 530Q3390 530 3451 576Q3512 623 3512 751Q3512 861 3459 918Q3406 976 3298 976Q3236 976 3183 958Q3130 940 3098 892Q3066 844 3066 755Q3066 664 3118 597Q3171 530 3287 530ZM3895 940L3615 940L3552 1033Q3574 1061 3639 1091Q3705 1121 3783 1121L3895 1121L3895 940ZM4322 0L4092 0L4092 1626L4322 1626L4322 1168L4310 967L4299 993Q4339 1025 4401 1056Q4463 1087 4535 1107Q4607 1128 4678 1130Q4860 1135 4942 1030Q5025 925 5025 681L5025 0L4795 0L4795 683Q4795 820 4752 881Q4710 942 4588 936Q4535 935 4461 911Q4387 887 4322 838L4322 0ZM5671 -16Q5592 -16 5532 9Q5472 34 5438 97Q5405 161 5405 278L5405 944L5261 944L5261 1068Q5335 1089 5374 1103Q5413 1118 5431 1166Q5439 1188 5449 1218Q5459 1249 5471 1286Q5483 1324 5497 1368L5635 1368L5635 1114L5947 1114L5947 944L5635 944L5635 400Q5635 292 5644 242Q5654 193 5680 179Q5707 166 5759 166Q5787 166 5823 172Q5860 179 5893 189Q5927 199 5945 210L5983 78Q5953 55 5902 33Q5852 12 5791 -2Q5731 -16 5671 -16Z" fill="#9c1f16" style=""></path></g></g><g transform="matrix(1,0,0,1,51.968,1397.7599)"><g transform="matrix(0.512,0,0,-0.512,0,0)"><path d="M305 0L189 0L189 1488L299 1486Q348 1486 399 1489Q450 1493 509 1496Q568 1500 641 1500Q812 1500 922 1456Q1032 1412 1085 1332Q1138 1253 1138 1146Q1138 1076 1114 1004Q1091 932 1041 877Q991 823 912 802Q1003 797 1075 746Q1148 696 1191 617Q1234 539 1234 447Q1234 312 1180 208Q1126 104 995 45Q864 -14 632 -14Q545 -14 452 -9Q359 -3 305 0ZM421 1321L421 851Q448 847 481 845Q514 844 549 844Q584 845 616 845Q649 846 676 846Q778 846 844 912Q911 978 911 1114Q911 1227 831 1281Q751 1335 602 1335Q584 1335 545 1333Q507 1332 471 1329Q435 1326 421 1321ZM421 676L421 177Q438 167 480 162Q522 157 570 155Q619 154 654 154Q815 154 906 213Q997 272 997 423Q997 558 915 619Q834 681 662 681Q634 681 600 681Q567 682 533 681Q500 681 471 680Q442 679 421 676ZM1920 -16Q1680 -16 1550 136Q1420 288 1420 558Q1420 720 1477 848Q1535 976 1647 1051Q1760 1126 1924 1128Q2008 1130 2082 1104Q2156 1078 2213 1025Q2270 973 2303 893Q2337 813 2340 706Q2340 643 2339 593Q2338 544 2330 506L1554 506L1574 652L2124 652Q2129 732 2114 803Q2100 875 2052 919Q2005 964 1912 964Q1834 964 1772 920Q1710 877 1676 774Q1642 671 1648 492Q1654 366 1699 293Q1744 220 1817 189Q1890 158 1980 158Q2018 158 2073 166Q2128 175 2179 188Q2231 202 2258 218L2302 86Q2265 56 2201 33Q2138 10 2064 -3Q1990 -16 1920 -16ZM2840 0L2610 0L2610 1112L2817 1112L2818 994Q2859 1022 2921 1053Q2984 1084 3056 1106Q3129 1128 3201 1130Q3380 1135 3458 1037Q3536 940 3536 695L3536 0L3304 0L3304 683Q3304 823 3266 884Q3229 945 3104 938Q3069 937 3023 925Q2978 914 2930 892Q2883 871 2840 838L2840 0ZM3780 544Q3780 709 3840 841Q3900 973 4020 1050Q4140 1128 4320 1128Q4425 1128 4498 1109Q4571 1090 4598 1072L4562 890Q4520 919 4461 933Q4402 948 4318 948Q4243 948 4173 911Q4103 875 4056 795Q4009 715 4004 584Q4000 446 4040 351Q4081 257 4152 208Q4224 160 4312 160Q4395 160 4465 181Q4536 202 4572 224L4616 90Q4565 42 4472 13Q4379 -16 4274 -16Q4115 -16 4005 58Q3895 132 3837 258Q3780 385 3780 544ZM5077 0L4847 0L4847 1626L5077 1626L5077 1168L5065 967L5054 993Q5094 1025 5156 1056Q5218 1087 5290 1107Q5362 1128 5433 1130Q5615 1135 5697 1030Q5780 925 5780 681L5780 0L5550 0L5550 683Q5550 820 5507 881Q5465 942 5343 936Q5290 935 5216 911Q5142 887 5077 838L5077 0Z" fill="#9c1f16" style=""></path></g></g></g></svg>